<!DOCTYPE svg PUBLIC "-//W3C//DTD SVG 20010904//EN" "http://www.w3.org/TR/2001/REC-SVG-20010904/DTD/svg10.dtd">
<svg version="1.0" xmlns="http://www.w3.org/2000/svg" width="1600px" height="366px" viewBox="0 0 16000 3660" preserveAspectRatio="xMidYMid meet">
    <g id="layer101" fill="#231f20" stroke="none">
        <path d="M14293 3650 c-72 -15 -183 -57 -241 -92 -31 -18 -93 -69 -138 -114 -211 -211 -262 -516 -130 -779 28 -54 70 -117 106 -157 63 -69 184 -158 242 -177 l33 -11 1 -127 c1 -95 7 -148 22 -208 27 -99 98 -242 134 -268 25 -19 29 -19 51 -4 32 21 54 105 66 259 11 132 21 158 56 158 36 0 83 -71 156 -235 137 -310 193 -395 261 -395 23 0 41 7 54 21 28 31 24 191 -10 389 -28 166 -31 207 -17 229 17 26 57 2 147 -91 50 -51 122 -125 160 -164 185 -190 326 -270 370 -209 41 56 -3 165 -166 410 -142 214 -181 315 -125 323 11 1 108 -41 215 -95 212 -107 276 -132 361 -140 49 -5 59 -3 78 16 73 73 -29 186 -449 496 -180 133 -240 192 -240 236 0 53 59 73 263 88 161 12 224 42 242 112 15 59 -100 128 -273 164 -82 18 -274 24 -382 12 l-65 -7 -30 47 c-82 132 -217 234 -384 290 -62 20 -100 26 -201 29 -69 2 -144 -1 -167 -6z m238 -296 c30 -9 74 -27 98 -41 55 -32 131 -101 131 -119 0 -7 -15 -21 -32 -30 -114 -58 -263 -193 -350 -316 -50 -70 -142 -244 -153 -290 -4 -16 -10 -28 -14 -28 -19 0 -112 64 -153 105 -168 171 -170 418 -5 593 93 98 195 141 338 141 50 1 108 -6 140 -15z" />
        <path d="M5228 3389 c-21 -12 -24 -62 -5 -77 7 -6 29 -9 48 -6 64 11 63 -6 -13 -180 -42 -97 -66 -166 -63 -177 8 -26 42 -42 70 -35 23 6 38 36 94 196 18 52 20 53 29 30 5 -14 24 -67 42 -118 38 -107 60 -128 105 -98 14 9 25 25 25 35 0 17 -121 316 -154 379 -9 17 -26 38 -38 46 -25 18 -113 21 -140 5z" />
        <path d="M10116 3324 c-64 -20 -137 -93 -159 -159 -87 -253 166 -470 386 -329 l37 24 0 -118 c0 -102 3 -121 18 -135 26 -23 58 -21 76 5 14 19 16 69 16 343 0 176 -3 330 -6 343 -13 47 -91 40 -101 -9 -6 -30 -6 -30 -27 -11 -59 54 -156 73 -240 46z m172 -98 c62 -32 93 -87 93 -161 0 -105 -69 -177 -171 -177 -84 0 -140 46 -159 134 -18 81 21 166 94 206 28 16 111 15 143 -2z" />
        <path d="M10742 3322 c-109 -39 -173 -124 -180 -238 -6 -86 17 -150 74 -207 112 -114 295 -114 408 -1 102 101 101 275 -2 379 -74 75 -199 103 -300 67z m176 -96 c62 -32 93 -87 93 -161 0 -61 -17 -102 -61 -139 -103 -86 -247 -34 -282 102 -18 71 18 152 86 193 37 23 125 25 164 5z" />
        <path d="M11902 3319 c-107 -42 -165 -133 -165 -255 0 -124 65 -222 172 -259 97 -33 195 -10 260 60 46 50 65 90 75 157 6 40 4 50 -13 67 -20 20 -33 21 -205 21 l-183 0 5 26 c7 39 62 91 110 103 55 15 106 6 163 -30 50 -32 69 -35 87 -17 19 19 14 53 -10 75 -74 68 -200 90 -296 52z m233 -321 c-21 -69 -79 -118 -139 -118 -62 0 -131 54 -151 118 l-6 22 151 0 151 0 -6 -22z" />
        <path d="M12415 3327 c-63 -16 -133 -55 -140 -78 -9 -27 12 -59 39 -59 13 0 45 12 71 27 94 52 205 31 205 -38 0 -33 -22 -47 -115 -74 -133 -38 -175 -77 -175 -161 0 -45 5 -59 30 -88 50 -56 138 -78 225 -56 102 27 135 54 120 101 -8 24 -37 23 -140 -7 -55 -15 -63 -16 -97 -1 -29 12 -38 22 -38 40 0 34 25 52 105 78 147 46 185 80 185 163 0 64 -26 108 -79 135 -51 27 -133 34 -196 18z" />
        <path d="M13073 3324 c-57 -21 -98 -62 -113 -111 -41 -134 85 -237 269 -219 38 3 76 9 85 12 19 7 21 -12 6 -50 -23 -61 -132 -85 -233 -50 -57 19 -87 8 -87 -35 0 -36 37 -55 134 -71 121 -19 222 14 268 88 21 35 23 49 26 225 3 139 0 192 -9 203 -18 22 -72 14 -83 -12 l-10 -21 -47 24 c-60 31 -148 39 -206 17z m182 -90 c48 -23 67 -48 72 -98 l5 -45 -38 -7 c-98 -20 -190 -5 -221 35 -30 39 -5 105 47 124 31 11 103 7 135 -9z" />
        <path d="M9182 3318 c-9 -9 -12 -99 -12 -345 l0 -333 25 -12 c19 -8 31 -8 50 0 l25 12 0 333 c0 356 0 357 -50 357 -14 0 -31 -5 -38 -12z" />
        <path d="M9412 3318 c-9 -9 -12 -79 -12 -253 0 -258 1 -265 50 -265 31 0 50 17 50 43 0 17 1 17 17 1 68 -67 208 -70 284 -7 60 51 69 87 69 288 0 128 -4 185 -12 193 -19 19 -66 15 -78 -7 -5 -11 -10 -86 -10 -171 0 -165 -9 -204 -53 -233 -36 -23 -113 -22 -153 2 -54 33 -64 70 -64 243 0 165 -4 178 -50 178 -14 0 -31 -5 -38 -12z" />
        <path d="M11206 3314 c-14 -13 -16 -50 -16 -249 0 -252 3 -265 53 -265 28 0 42 10 50 34 7 17 9 17 25 3 10 -9 37 -23 61 -32 122 -43 246 13 280 124 6 22 11 109 11 204 0 137 -3 168 -16 181 -19 19 -58 21 -72 4 -5 -7 -12 -87 -14 -178 -3 -105 -9 -174 -17 -191 -19 -38 -62 -59 -120 -59 -44 0 -56 5 -89 34 l-37 34 -5 177 c-4 141 -8 178 -20 185 -23 15 -57 12 -74 -6z" />
        <path d="M12792 3318 c-9 -9 -12 -79 -12 -253 0 -174 3 -244 12 -253 15 -15 61 -15 76 0 16 16 17 470 2 499 -12 22 -59 26 -78 7z" />
        <path d="M5960 3297 l-25 -13 -3 -287 -2 -287 -100 0 c-87 0 -103 -3 -120 -20 -11 -11 -20 -27 -20 -35 0 -8 9 -24 20 -35 19 -19 33 -20 275 -20 242 0 256 1 275 20 11 11 20 27 20 35 0 8 -9 24 -20 35 -17 17 -33 20 -120 20 l-100 0 0 284 c0 283 0 285 -22 300 -27 19 -26 19 -58 3z" />
        <path d="M6346 3295 c-59 -21 -108 -66 -141 -129 -72 -140 -8 -324 134 -383 53 -23 159 -20 208 5 80 41 143 144 143 233 0 55 -14 59 -216 59 l-185 0 6 23 c13 41 54 85 91 97 53 18 127 8 172 -24 21 -14 48 -26 60 -26 26 0 55 40 46 64 -8 21 -78 69 -123 84 -46 16 -147 14 -195 -3z m224 -319 c0 -25 -45 -81 -80 -99 -66 -34 -146 -2 -186 75 -8 15 -14 29 -14 33 0 3 63 5 140 5 111 0 140 -3 140 -14z" />
        <path d="M6790 3303 c-39 -14 -40 -27 -40 -368 0 -309 1 -333 18 -348 21 -19 45 -21 73 -7 18 10 19 25 19 355 l0 344 -22 15 c-24 17 -25 17 -48 9z" />
        <path d="M7000 3303 c-38 -14 -40 -28 -40 -363 0 -278 2 -329 16 -348 16 -24 44 -28 75 -12 18 10 19 23 19 233 l0 222 133 -133 c73 -72 140 -132 150 -132 34 0 57 20 57 48 0 22 -19 46 -85 111 l-84 83 89 108 c99 119 113 156 65 178 -14 6 -33 8 -44 4 -10 -4 -56 -52 -101 -107 -45 -55 -84 -102 -86 -104 -3 -3 -25 15 -49 39 -43 42 -45 47 -45 100 0 51 -3 58 -25 68 -14 7 -27 12 -28 11 -1 0 -9 -3 -17 -6z" />
        <path d="M7606 3296 c-78 -29 -146 -102 -167 -180 -15 -56 -6 -153 19 -201 101 -198 399 -197 505 0 30 55 31 182 2 240 -25 51 -80 105 -130 130 -52 25 -175 31 -229 11z m180 -107 c116 -56 121 -232 8 -298 -49 -29 -130 -29 -175 2 -50 33 -82 100 -75 159 14 125 130 191 242 137z" />
        <path d="M8090 3303 c-37 -13 -40 -32 -40 -268 0 -212 2 -233 18 -248 10 -10 26 -17 36 -17 26 0 56 19 56 35 0 10 12 7 46 -12 78 -44 185 -32 244 27 19 19 20 19 71 -15 28 -19 65 -36 83 -37 121 -7 185 22 226 103 18 34 20 59 20 227 l0 189 -25 11 c-29 14 -69 2 -79 -23 -3 -9 -6 -83 -6 -164 0 -160 -8 -201 -45 -225 -32 -21 -99 -20 -132 1 -44 29 -53 68 -53 227 0 79 -3 152 -6 161 -11 27 -53 38 -80 20 -24 -15 -24 -19 -24 -171 0 -167 -9 -208 -51 -238 -38 -26 -103 -21 -139 12 -41 36 -49 78 -50 244 0 130 -1 138 -22 152 -24 17 -25 17 -48 9z" />
        <path d="M4782 3284 c-22 -15 -22 -19 -22 -249 0 -221 1 -235 19 -245 59 -31 91 5 91 103 l0 68 22 -20 c60 -57 186 -28 233 52 22 37 30 131 16 183 -28 104 -178 162 -247 95 -18 -17 -20 -17 -41 5 -26 28 -40 30 -71 8z m233 -109 c27 -26 34 -89 14 -127 -15 -29 -72 -50 -103 -39 -59 23 -77 120 -31 166 33 34 87 34 120 0z" />
        <path d="M3567 2346 c-28 -30 -96 -146 -179 -306 -36 -69 -88 -168 -115 -220 -28 -52 -101 -194 -163 -315 -124 -240 -140 -269 -140 -244 0 9 -9 76 -20 150 -18 122 -29 210 -91 664 -23 172 -33 211 -59 225 -20 11 -266 11 -390 1 l-75 -6 -3 -46 c-2 -38 90 -615 319 -1989 17 -102 38 -198 46 -213 28 -54 99 -59 145 -9 14 15 60 95 103 177 43 83 162 303 263 490 101 187 230 424 285 528 56 103 104 187 107 187 5 0 63 -105 345 -625 86 -159 183 -337 215 -395 32 -58 87 -162 124 -231 72 -138 85 -153 134 -164 39 -8 78 13 93 52 10 26 47 244 219 1288 55 336 110 664 121 731 11 66 19 143 17 170 l-3 49 -75 6 c-126 11 -370 10 -390 -1 -26 -14 -33 -47 -70 -315 -17 -126 -42 -309 -55 -405 -13 -96 -27 -202 -31 -235 -12 -104 -15 -103 -72 8 -28 56 -79 154 -113 217 -61 117 -153 292 -262 500 -102 195 -137 254 -163 278 -32 28 -40 28 -67 -2z" />
        <path d="M6150 2360 c-210 -22 -405 -98 -575 -224 -371 -274 -550 -738 -459 -1186 92 -449 426 -801 871 -916 121 -32 336 -43 463 -25 487 72 881 437 984 913 38 174 38 393 0 543 -97 383 -400 716 -765 838 -151 50 -364 74 -519 57z m288 -536 c229 -58 417 -244 481 -474 23 -82 28 -222 10 -300 -32 -143 -115 -281 -225 -373 -404 -340 -1018 -95 -1085 433 -21 171 38 365 153 497 170 197 422 279 666 217z" />
        <path d="M7796 2344 c-3 -9 -6 -514 -6 -1124 0 -994 2 -1110 16 -1124 14 -14 93 -16 725 -16 471 0 717 3 730 10 18 10 19 24 19 245 0 199 -2 236 -16 249 -14 14 -71 16 -485 16 l-469 0 0 185 0 185 390 0 c375 0 390 1 400 19 6 12 10 107 10 240 0 186 -2 222 -16 235 -13 14 -64 16 -400 16 l-384 0 0 185 0 185 469 0 c423 0 470 2 482 17 18 20 26 424 10 466 l-11 27 -729 0 c-655 0 -729 -2 -735 -16z" />
        <path d="M9750 2340 c-20 -20 -20 -33 -20 -1124 0 -1072 1 -1104 19 -1127 l19 -24 369 1 c337 0 379 2 497 23 224 39 368 103 470 207 98 101 136 210 136 394 0 224 -43 304 -230 432 -41 28 -79 54 -83 59 -5 4 23 24 62 44 216 114 325 278 324 490 0 117 -15 179 -65 282 -70 145 -224 265 -398 312 -156 42 -278 51 -690 51 -377 0 -391 -1 -410 -20z m906 -479 c163 -74 161 -328 -5 -397 -49 -20 -193 -35 -286 -28 -140 9 -125 -18 -125 223 0 114 3 211 7 214 3 4 88 7 187 7 154 0 187 -3 222 -19z m-52 -865 c72 -30 116 -98 124 -192 8 -103 -31 -184 -111 -227 -39 -20 -55 -22 -207 -22 l-165 0 -3 219 c-2 169 1 221 10 228 23 14 315 10 352 -6z" />
        <path d="M11351 2351 c-23 -15 -8 -78 52 -206 30 -66 66 -145 80 -175 14 -30 79 -172 145 -315 65 -143 168 -366 227 -495 433 -944 471 -1025 511 -1067 40 -42 72 -43 118 -2 40 34 39 32 279 554 151 327 223 484 372 810 15 33 45 98 67 145 22 47 86 186 143 310 57 124 119 260 139 303 38 81 44 115 24 135 -9 9 -77 12 -244 12 -228 0 -233 -1 -257 -22 -13 -13 -75 -135 -137 -273 -62 -137 -129 -284 -148 -325 -19 -41 -45 -100 -59 -130 -24 -51 -95 -207 -158 -345 -15 -33 -39 -84 -52 -114 -13 -29 -25 -52 -27 -50 -2 2 -96 207 -209 454 -214 471 -238 524 -293 643 -19 41 -34 77 -34 80 0 4 -14 24 -31 45 l-30 37 -232 0 c-128 0 -238 -4 -246 -9z" />
        <path d="M22 2294 c-14 -9 -22 -26 -22 -43 0 -34 -2 -30 250 -576 27 -59 210 -455 437 -950 63 -137 135 -292 159 -344 24 -51 44 -95 44 -96 0 -2 24 -54 54 -117 56 -120 97 -168 141 -168 42 0 95 58 138 150 35 75 151 328 232 505 43 95 130 282 175 380 23 50 88 191 145 315 57 124 147 320 200 435 226 491 227 493 169 515 -43 17 -409 13 -450 -5 -39 -16 -36 -12 -214 -400 -45 -99 -95 -209 -112 -245 -16 -36 -84 -184 -150 -330 -66 -146 -124 -268 -127 -273 -4 -4 -39 64 -78 150 -60 131 -154 338 -335 733 -14 30 -36 78 -48 105 -112 247 -116 253 -156 264 -22 6 -127 11 -234 11 -161 0 -199 -3 -218 -16z" />
    </g>
    <g id="layer102" fill="#ee3124" stroke="none">
        <path d="M14295 3650 c-227 -48 -412 -188 -509 -383 -99 -199 -100 -408 -2 -602 28 -55 70 -117 107 -157 60 -68 185 -159 243 -178 l31 -10 1 -127 c1 -95 7 -148 22 -208 27 -99 98 -242 134 -268 25 -19 29 -19 51 -4 32 21 54 105 66 259 11 132 21 158 56 158 36 0 83 -71 156 -235 137 -310 193 -395 261 -395 23 0 41 7 54 21 28 31 24 191 -10 389 -28 166 -31 207 -17 229 17 27 58 1 161 -106 58 -59 130 -133 160 -164 77 -78 182 -164 231 -190 55 -27 107 -29 125 -4 41 56 -3 165 -166 410 -143 215 -181 315 -124 323 11 2 105 -40 208 -92 267 -136 399 -173 446 -126 72 72 -34 188 -450 495 -180 133 -240 192 -240 236 0 53 59 73 263 88 161 12 224 42 242 112 15 59 -100 128 -273 164 -82 18 -274 24 -382 12 l-65 -7 -30 47 c-82 132 -217 234 -384 290 -62 20 -100 26 -201 29 -69 2 -143 -1 -165 -6z m236 -296 c30 -9 74 -27 98 -41 55 -32 131 -101 131 -119 0 -7 -15 -21 -32 -30 -114 -58 -263 -193 -350 -316 -50 -70 -142 -244 -153 -290 -4 -16 -10 -28 -14 -28 -19 0 -112 64 -153 105 -168 171 -170 418 -5 593 93 98 195 141 338 141 50 1 108 -6 140 -15z" />
    </g>
    <g id="layer103" fill="#6d6e71" stroke="none">
        <path d="M14295 3650 c-227 -48 -412 -188 -509 -383 -99 -199 -100 -408 -2 -602 107 -211 296 -346 539 -385 363 -59 720 170 812 520 23 85 23 244 1 327 -65 245 -228 417 -475 500 -62 20 -100 26 -201 29 -69 2 -143 -1 -165 -6z m244 -299 c211 -66 351 -281 313 -484 -36 -190 -188 -336 -387 -369 -315 -52 -605 251 -519 543 24 80 50 126 107 187 93 98 195 141 339 141 58 1 106 -5 147 -18z" />
    </g>
    <g id="layer104" fill="#ffffff" stroke="none">
        <path d="M14960 3256 c-101 -31 -175 -62 -174 -72 0 -5 13 -35 28 -66 59 -123 57 -250 -5 -376 -84 -170 -290 -275 -482 -244 -40 7 -81 14 -93 18 -21 6 -28 -14 -60 -174 -5 -27 16 -37 131 -59 257 -49 541 56 700 259 103 132 148 259 148 423 0 104 -16 185 -53 268 -25 55 -31 56 -140 23z" />
    </g>
</svg>